<svg xmlns="http://www.w3.org/2000/svg" width="199" height="29">
  <g fill="none" fill-rule="evenodd">
    <path fill="#FFBF00" d="M15.048 13.263c0-2.087-1.69-3.79-3.762-3.79s-3.762 1.703-3.762 3.79c0 2.087 1.69 3.79 3.762 3.79s3.762-1.703 3.762-3.79zm1.88 0c0 3.138-2.527 5.684-5.642 5.684S5.643 16.4 5.643 13.263c0-3.138 2.528-5.684 5.643-5.684 3.115 0 5.643 2.54 5.643 5.68zm1.882 0c0-4.19-3.365-7.58-7.524-7.58-4.16 0-7.524 3.39-7.524 7.58 0 4.19 3.365 7.58 7.524 7.58 4.16 0 7.524-3.39 7.524-7.58zm1.88 0c0 5.225-4.217 9.474-9.404 9.474s-9.405-4.25-9.405-9.474c0-5.225 4.22-9.474 9.41-9.474s9.41 4.24 9.41 9.47zm1.882 0c0-6.276-5.055-11.368-11.286-11.368C5.056 1.895 0 6.987 0 13.263c0 6.276 5.055 11.37 11.286 11.37 6.23 0 11.286-5.094 11.286-11.37z"/>
    <path fill="#33495F" d="M33.89 23.285c-1.234-.02-2.235-.152-3.004-.4-.77-.246-1.377-.592-1.823-1.038-.446-.447-.75-.988-.91-1.624-.163-.636-.243-1.353-.243-2.15V1.583L32.153.9v16.318c0 .38.03.722.086 1.026.05.304.16.56.32.77.16.208.39.378.7.51.3.134.71.22 1.22.258l-.6 3.503zm2.307-7.66c0-1.33.205-2.493.613-3.49.408-.997.944-1.828 1.61-2.492.663-.665 1.428-1.168 2.292-1.51.863-.342 1.75-.512 2.662-.512 2.127 0 3.807.65 5.042 1.96 1.234 1.3 1.85 3.22 1.85 5.74 0 .25-.01.52-.028.82-.02.3-.038.56-.057.79h-9.62c.1.88.51 1.57 1.23 2.08s1.69.77 2.91.77c.78 0 1.54-.07 2.29-.21s1.37-.31 1.84-.52l.57 3.45c-.23.12-.53.23-.91.34-.38.12-.8.22-1.26.3-.46.09-.96.16-1.49.22s-1.06.08-1.59.08c-1.35 0-2.52-.2-3.52-.6-1-.4-1.82-.94-2.48-1.64-.65-.69-1.14-1.51-1.45-2.46-.31-.95-.47-1.97-.47-3.07zM46.167 14c-.02-.36-.082-.712-.187-1.054-.104-.34-.265-.645-.484-.91-.218-.267-.493-.485-.826-.656-.332-.17-.745-.256-1.24-.256-.473 0-.88.08-1.223.242-.342.16-.627.375-.855.64-.227.266-.403.575-.526.926-.124.35-.214.707-.27 1.068h5.61zm13.1 6.038c.417 0 .816-.01 1.196-.028.38-.02.683-.048.91-.086v-3.218c-.17-.038-.426-.076-.768-.114-.342-.038-.655-.057-.94-.057-.398 0-.773.024-1.125.07-.35.05-.66.14-.925.272-.266.133-.475.313-.627.54-.152.23-.228.513-.228.855 0 .665.223 1.125.67 1.382.446.256 1.058.384 1.837.384zM58.925 7.62c1.253 0 2.297.143 3.133.428.835.285 1.504.693 2.007 1.224.504.532.86 1.178 1.068 1.937.21.76.314 1.6.314 2.53v8.83c-.608.13-1.453.29-2.535.47s-2.392.27-3.93.27c-.97 0-1.847-.09-2.635-.26-.788-.17-1.466-.45-2.036-.84-.57-.39-1-.9-1.31-1.53-.3-.63-.45-1.4-.45-2.31 0-.88.18-1.62.53-2.22.35-.61.82-1.1 1.41-1.46.59-.36 1.26-.62 2.02-.79.76-.16 1.55-.25 2.37-.25.55 0 1.04.02 1.47.07.43.05.78.11 1.04.19v-.4c0-.72-.22-1.3-.65-1.74-.43-.44-1.19-.66-2.28-.66-.72 0-1.43.05-2.13.152s-1.31.25-1.82.44l-.54-3.41c.25-.075.55-.156.92-.24.37-.086.78-.16 1.21-.23.44-.064.9-.12 1.38-.17.49-.05.98-.07 1.47-.07zm13.984 7.776c0 1.31.29 2.364.88 3.16.59.8 1.46 1.197 2.62 1.197.38 0 .73-.014 1.05-.042.32-.02.59-.06.8-.1V11.9c-.27-.17-.61-.314-1.04-.428-.43-.114-.86-.17-1.3-.17-2.02 0-3.02 1.366-3.02 4.1zm9.59 7.12c-.38.114-.82.223-1.31.327-.5.105-1.01.195-1.55.27-.54.077-1.09.14-1.65.186-.56.04-1.1.07-1.61.07-1.24 0-2.34-.18-3.31-.54-.97-.37-1.79-.88-2.45-1.56-.67-.68-1.17-1.49-1.53-2.45-.35-.96-.53-2.04-.53-3.23 0-1.22.15-2.31.45-3.29.3-.98.74-1.81 1.31-2.49.57-.69 1.27-1.21 2.09-1.57.82-.36 1.77-.54 2.83-.54.59 0 1.11.05 1.58.17.46.11.93.27 1.41.48V1.58L82.5.9v21.616zm7.7.484h-2.65V8.19h2.65V23zM88.86 5.513c-.474 0-.877-.157-1.21-.47-.332-.313-.498-.736-.498-1.267 0-.532.166-.954.498-1.268.333-.313.736-.47 1.21-.47.475 0 .88.157 1.21.47.333.314.5.736.5 1.268 0 .53-.167.954-.5 1.267-.33.313-.735.47-1.21.47zm6.336 3.104c.608-.15 1.415-.313 2.42-.484 1.007-.17 2.165-.256 3.476-.256 1.177 0 2.155.166 2.933.498.778.333 1.4.798 1.865 1.396.466.6.793 1.32.983 2.15.19.84.285 1.76.285 2.77V23h-2.65v-7.747c0-.91-.06-1.69-.184-2.335-.123-.646-.327-1.168-.612-1.566-.285-.4-.665-.69-1.14-.87-.474-.18-1.063-.27-1.765-.27-.285 0-.58.01-.883.03-.304.018-.594.042-.87.07-.274.028-.52.062-.74.1-.218.038-.374.066-.47.085V23h-2.648V8.617zm14.367 19.71c-.228 0-.522-.03-.883-.087-.36-.057-.664-.133-.91-.227l.34-2.165c.19.057.41.104.656.142.246.038.474.057.683.057.91 0 1.56-.28 1.95-.84.39-.56.58-1.38.58-2.463V8.19h2.65v14.525c0 1.9-.43 3.31-1.3 4.23-.87.92-2.12 1.38-3.78 1.38zm3.73-22.814c-.474 0-.877-.157-1.21-.47-.332-.313-.498-.736-.498-1.267 0-.532.166-.954.498-1.268.333-.313.736-.47 1.21-.47.476 0 .88.157 1.21.47.334.314.5.736.5 1.268 0 .53-.166.954-.5 1.267-.33.313-.734.47-1.21.47zm5.51 10.11c0-1.31.19-2.453.57-3.43.38-.98.883-1.79 1.51-2.436.626-.646 1.348-1.13 2.164-1.453.816-.323 1.652-.484 2.506-.484 1.994 0 3.522.622 4.586 1.865 1.06 1.244 1.59 3.138 1.59 5.682v.442c0 .18-.01.34-.03.49h-10.14c.11 1.54.56 2.7 1.34 3.5.78.79 1.99 1.19 3.64 1.19.93 0 1.71-.08 2.35-.24.63-.16 1.11-.32 1.43-.47l.37 2.22c-.33.17-.89.35-1.7.54-.81.19-1.73.28-2.75.28-1.29 0-2.41-.2-3.35-.59-.94-.39-1.72-.93-2.32-1.61-.61-.69-1.06-1.5-1.36-2.44-.29-.94-.44-1.97-.44-3.09zm10.168-1.452c.02-1.19-.28-2.17-.89-2.94s-1.46-1.15-2.55-1.15c-.6 0-1.14.12-1.61.36-.46.24-.86.55-1.18.93-.32.38-.57.82-.75 1.31-.18.5-.3 1-.35 1.51h7.35zm13.46 9.18c-1.19 0-2.24-.19-3.14-.57-.9-.38-1.66-.91-2.28-1.59-.61-.68-1.07-1.49-1.38-2.43-.3-.94-.45-1.98-.45-3.12 0-1.14.17-2.18.5-3.13.34-.95.81-1.77 1.41-2.46.61-.69 1.36-1.23 2.24-1.62.89-.39 1.87-.58 2.95-.58.67 0 1.33.06 2 .17.67.12 1.3.3 1.91.54l-.59 2.25c-.4-.19-.86-.34-1.38-.45-.52-.11-1.08-.17-1.67-.17-1.48 0-2.62.47-3.4 1.4-.79.93-1.18 2.29-1.18 4.08 0 .8.09 1.53.27 2.2.18.67.47 1.24.86 1.71.39.48.89.84 1.494 1.1.61.26 1.35.38 2.22.38.707 0 1.34-.07 1.91-.2.57-.13 1.018-.28 1.34-.43l.37 2.22c-.15.1-.37.19-.654.27-.28.09-.608.16-.97.23-.36.07-.74.13-1.15.17-.41.05-.8.08-1.18.08zm9.72-15.15h5.62v2.23h-5.61v6.84c0 .74.06 1.36.17 1.84.12.49.29.87.52 1.14.23.28.51.47.86.59.34.12.74.17 1.2.17.8 0 1.44-.09 1.93-.27.48-.18.82-.3 1.01-.38l.51 2.2c-.26.14-.73.3-1.39.5-.66.2-1.42.3-2.28.3-1 0-1.83-.13-2.49-.38-.65-.26-1.18-.64-1.58-1.15-.4-.51-.68-1.14-.84-1.89-.16-.75-.24-1.62-.24-2.605V4.06l2.65-.455V8.19zM164.21 23h-2.648V8.19h2.65V23zm-1.338-17.487c-.474 0-.878-.157-1.21-.47-.332-.313-.498-.736-.498-1.267 0-.532.166-.954.498-1.268.332-.313.736-.47 1.21-.47.475 0 .88.157 1.21.47.333.314.5.736.5 1.268 0 .53-.167.954-.5 1.267-.33.313-.735.47-1.21.47zm19.408 10.082c0 1.177-.17 2.24-.512 3.19-.342.95-.822 1.766-1.44 2.45-.616.683-1.35 1.21-2.206 1.58-.854.37-1.785.555-2.79.555-1.007 0-1.938-.185-2.792-.555-.854-.37-1.59-.897-2.207-1.58-.617-.684-1.097-1.5-1.438-2.45-.342-.95-.513-2.013-.513-3.19 0-1.158.17-2.217.513-3.175.34-.96.82-1.78 1.438-2.464.617-.684 1.353-1.21 2.207-1.58.854-.37 1.785-.556 2.79-.556 1.007 0 1.938.185 2.792.555.855.37 1.59.897 2.207 1.58.61.685 1.09 1.506 1.43 2.465.34.958.51 2.017.51 3.175zm-2.762 0c0-1.67-.375-2.995-1.125-3.973-.75-.978-1.77-1.467-3.062-1.467-1.29 0-2.31.49-3.06 1.467-.75.978-1.12 2.302-1.12 3.973 0 1.67.38 2.995 1.13 3.973.75.978 1.77 1.467 3.06 1.467 1.3 0 2.32-.49 3.07-1.467.75-.978 1.13-2.302 1.13-3.973zm6.933-6.978c.61-.15 1.42-.313 2.43-.484 1.01-.17 2.17-.256 3.48-.256 1.18 0 2.16.166 2.94.498.78.333 1.4.798 1.87 1.396.47.6.79 1.32.98 2.15.19.84.29 1.76.29 2.77V23h-2.65v-7.747c0-.91-.06-1.69-.18-2.335-.12-.646-.33-1.168-.61-1.566-.28-.4-.66-.69-1.14-.87-.47-.18-1.06-.27-1.76-.27-.29 0-.58.01-.88.03-.3.018-.59.042-.87.07-.27.028-.52.062-.74.1-.22.038-.37.066-.47.085V23h-2.65V8.617z"/>
  </g>
</svg>
