<svg xmlns="http://www.w3.org/2000/svg" width="199" height="29">
  <g fill="none" fill-rule="evenodd">
    <path fill="#FFBF00" d="M11.692 9.474c-2.072 0-3.762 1.702-3.762 3.79 0 2.086 1.69 3.79 3.762 3.79s3.762-1.704 3.762-3.79c0-2.088-1.69-3.79-3.762-3.79zm0 9.473c-3.115 0-5.643-2.546-5.643-5.684 0-3.138 2.52-5.684 5.64-5.684 3.11 0 5.64 2.54 5.64 5.68s-2.53 5.68-5.65 5.68zm0-13.263c-4.16 0-7.524 3.39-7.524 7.58 0 4.188 3.365 7.578 7.524 7.578 4.16 0 7.524-3.39 7.524-7.58 0-4.188-3.365-7.578-7.524-7.578zm0 17.053c-5.187 0-9.405-4.25-9.405-9.474 0-5.225 4.218-9.474 9.405-9.474 5.188 0 9.405 4.24 9.405 9.47s-4.217 9.47-9.405 9.47zm0-20.842C5.462 1.895.406 6.987.406 13.263c0 6.276 5.055 11.37 11.286 11.37 6.23 0 11.286-5.094 11.286-11.37 0-6.276-5.055-11.368-11.286-11.368z"/>
    <path fill="#FFF" d="M34.297 23.285c-1.234-.02-2.236-.152-3.005-.4-.77-.246-1.376-.592-1.823-1.038-.45-.447-.75-.988-.92-1.624-.16-.636-.24-1.353-.24-2.15V1.583L32.56.9v16.318c0 .38.028.722.085 1.026.057.304.166.56.327.77.162.208.394.378.698.51.304.134.712.22 1.225.258l-.598 3.503zm2.307-7.66c0-1.33.204-2.493.612-3.49.408-.997.945-1.828 1.61-2.492.664-.665 1.428-1.168 2.292-1.51.864-.342 1.75-.512 2.663-.512 2.13 0 3.81.65 5.05 1.96 1.24 1.3 1.85 3.22 1.85 5.74 0 .25-.01.52-.02.82l-.05.79h-9.63c.1.88.51 1.57 1.23 2.08s1.69.77 2.908.77c.78 0 1.544-.07 2.294-.21s1.36-.313 1.835-.522l.57 3.447c-.23.113-.53.227-.91.34-.38.115-.803.214-1.27.3-.464.085-.96.156-1.494.213-.53.053-1.06.082-1.593.082-1.342 0-2.52-.2-3.51-.6-.998-.4-1.824-.945-2.48-1.64-.654-.69-1.14-1.513-1.45-2.463-.315-.95-.47-1.972-.47-3.073zM46.572 14c-.02-.36-.08-.712-.185-1.054-.105-.34-.266-.645-.484-.91-.22-.267-.494-.485-.826-.656-.333-.17-.746-.256-1.24-.256-.474 0-.882.08-1.224.242-.342.16-.627.375-.854.64-.23.266-.41.575-.53.926-.13.35-.22.707-.27 1.068h5.61zm13.1 6.038c.418 0 .817-.01 1.197-.028.38-.02.68-.048.91-.086v-3.218c-.17-.038-.43-.076-.77-.114-.34-.038-.66-.057-.94-.057-.4 0-.78.024-1.13.07-.35.05-.66.14-.93.272-.27.133-.48.313-.63.54-.15.23-.23.513-.23.855 0 .665.22 1.125.67 1.382.44.256 1.05.384 1.83.384zm-.34-12.417c1.252 0 2.296.15 3.132.43.835.29 1.505.7 2.008 1.23.503.53.86 1.18 1.068 1.94.21.76.313 1.61.313 2.54v8.83c-.608.13-1.452.29-2.535.47-1.082.18-2.392.27-3.93.27-.968 0-1.847-.08-2.634-.25-.788-.17-1.467-.45-2.037-.84-.57-.39-1.006-.89-1.31-1.52-.304-.63-.456-1.393-.456-2.31 0-.87.18-1.61.53-2.22.35-.61.82-1.09 1.41-1.45.59-.36 1.27-.622 2.02-.783.76-.165 1.55-.246 2.37-.246.55 0 1.04.023 1.47.07.43.05.78.11 1.04.185v-.4c0-.722-.22-1.3-.65-1.74-.43-.436-1.19-.655-2.28-.655-.72 0-1.43.05-2.13.16-.7.1-1.31.25-1.82.44l-.54-3.42c.25-.08.56-.16.93-.24.37-.09.77-.16 1.21-.23.44-.07.9-.13 1.38-.17.49-.05.98-.077 1.47-.077zm13.983 7.78c0 1.31.294 2.37.883 3.16.588.8 1.462 1.2 2.62 1.2.38 0 .73-.01 1.054-.04.322-.03.588-.06.797-.1V11.9c-.27-.17-.62-.315-1.04-.43-.43-.112-.86-.17-1.3-.17-2.02 0-3.02 1.368-3.02 4.1zm9.598 7.12c-.38.12-.817.23-1.31.33-.494.11-1.01.2-1.553.27-.54.08-1.09.14-1.65.19-.562.05-1.098.07-1.61.07-1.235 0-2.336-.18-3.304-.54-.97-.36-1.785-.88-2.45-1.55-.664-.67-1.172-1.49-1.523-2.45-.352-.95-.527-2.03-.527-3.23 0-1.21.152-2.31.456-3.29.303-.98.74-1.81 1.31-2.49.57-.68 1.267-1.21 2.093-1.57.826-.36 1.77-.54 2.834-.54.58 0 1.11.06 1.58.17.46.12.93.28 1.41.49V1.59L82.91.9v21.616zm7.692.49h-2.648V8.19h2.648V23zM89.267 5.52c-.475 0-.878-.158-1.21-.47-.333-.314-.5-.737-.5-1.268 0-.532.167-.954.5-1.27.332-.313.735-.47 1.21-.47s.878.157 1.21.47c.333.314.5.736.5 1.268 0 .53-.167.954-.5 1.267-.332.313-.735.47-1.21.47zm6.335 3.103c.608-.15 1.415-.313 2.42-.484 1.007-.17 2.166-.26 3.476-.26 1.177 0 2.155.16 2.933.49.78.33 1.41.79 1.87 1.39.47.6.79 1.31.98 2.15.19.84.29 1.76.29 2.76V23h-2.65v-7.747c0-.91-.06-1.69-.18-2.335-.12-.646-.32-1.168-.61-1.566-.28-.4-.66-.69-1.14-.87-.47-.18-1.06-.27-1.76-.27-.28 0-.58.01-.88.03-.3.018-.59.042-.87.07-.27.028-.52.062-.74.1l-.47.085V23h-2.65V8.617zm14.367 19.71c-.23 0-.53-.03-.89-.087-.36-.055-.67-.13-.91-.225l.34-2.16c.19.06.41.11.65.14.24.04.47.06.68.06.91 0 1.56-.28 1.95-.84.39-.56.58-1.38.58-2.46V8.19h2.65v14.525c0 1.9-.44 3.31-1.3 4.23-.87.92-2.12 1.38-3.78 1.38zM113.7 5.52c-.48 0-.88-.158-1.21-.47-.34-.314-.5-.737-.5-1.268 0-.532.16-.954.5-1.27.33-.313.73-.47 1.21-.47s.87.157 1.21.47c.33.314.5.736.5 1.268 0 .53-.17.954-.5 1.267-.34.313-.74.47-1.21.47zm5.51 10.11c0-1.31.19-2.454.57-3.43.38-.98.88-1.79 1.51-2.437.62-.648 1.34-1.13 2.16-1.455.812-.323 1.65-.484 2.5-.484 1.994 0 3.523.626 4.586 1.87 1.063 1.242 1.595 3.136 1.595 5.68v.44c0 .18-.01.345-.03.497h-10.13c.12 1.54.56 2.71 1.34 3.51.78.8 2 1.2 3.65 1.2.93 0 1.72-.08 2.35-.24.64-.16 1.12-.31 1.44-.47l.37 2.23c-.32.17-.88.35-1.69.54-.8.19-1.72.285-2.75.285-1.29 0-2.4-.193-3.34-.582-.94-.39-1.71-.922-2.32-1.61-.61-.68-1.06-1.49-1.35-2.43-.3-.94-.44-1.97-.44-3.09zm10.16-1.453c.02-1.194-.28-2.177-.898-2.946-.618-.77-1.468-1.15-2.55-1.15-.608 0-1.144.12-1.61.36-.464.24-.86.55-1.18.93-.324.38-.575.82-.756 1.31-.18.5-.3 1-.356 1.51h7.348zm13.455 9.173c-1.197 0-2.246-.19-3.147-.57-.9-.38-1.66-.91-2.28-1.596-.616-.68-1.076-1.493-1.38-2.433-.304-.94-.456-1.98-.456-3.12 0-1.14.165-2.18.5-3.13.33-.95.8-1.77 1.407-2.46.61-.69 1.35-1.23 2.23-1.62.88-.39 1.87-.58 2.95-.58.66 0 1.33.06 1.99.17.66.12 1.3.3 1.91.54l-.6 2.25c-.4-.19-.86-.34-1.38-.45-.53-.11-1.08-.17-1.67-.17-1.48 0-2.62.47-3.41 1.4-.788.93-1.18 2.29-1.18 4.076 0 .8.09 1.53.27 2.195.18.668.464 1.238.854 1.71.39.477.887.84 1.495 1.1.61.256 1.35.384 2.22.384.71 0 1.34-.067 1.91-.2.57-.133 1.02-.275 1.34-.427l.37 2.22c-.15.096-.37.186-.65.27-.287.087-.61.16-.97.23-.36.066-.748.12-1.156.17-.41.048-.804.07-1.183.07zm9.724-15.153h5.61v2.223h-5.61v6.835c0 .74.05 1.355.17 1.84.11.483.28.863.51 1.14.23.273.51.47.85.582.34.115.74.17 1.19.17.8 0 1.44-.09 1.92-.27.48-.18.82-.307 1.01-.383l.51 2.194c-.267.133-.73.3-1.397.498-.67.2-1.428.3-2.28.3-1.01 0-1.84-.13-2.495-.384-.653-.258-1.18-.642-1.58-1.155-.397-.51-.677-1.143-.84-1.893-.16-.75-.24-1.616-.24-2.604V4.06l2.65-.455V8.19zM164.61 23h-2.645V8.19h2.64V23zm-1.33-17.487c-.476 0-.88-.157-1.212-.47-.332-.313-.498-.736-.498-1.267 0-.532.166-.954.498-1.268.332-.313.736-.47 1.21-.47.475 0 .88.157 1.21.47.333.314.5.736.5 1.268 0 .53-.167.954-.5 1.267-.33.313-.735.47-1.21.47zm19.407 10.082c0 1.177-.17 2.24-.513 3.19-.342.95-.82 1.766-1.438 2.45-.617.683-1.353 1.21-2.208 1.58-.854.37-1.784.555-2.79.555-1.007 0-1.937-.185-2.792-.555-.854-.37-1.59-.897-2.207-1.58-.62-.684-1.1-1.5-1.44-2.45-.34-.95-.52-2.013-.52-3.19 0-1.158.17-2.217.51-3.175.34-.96.82-1.78 1.44-2.464.61-.684 1.35-1.21 2.2-1.58.85-.37 1.78-.556 2.79-.556s1.94.185 2.79.555c.85.37 1.59.897 2.2 1.58.62.685 1.1 1.506 1.44 2.465.34.958.51 2.017.51 3.175zm-2.763 0c0-1.67-.375-2.995-1.125-3.973-.75-.978-1.78-1.467-3.07-1.467-1.29 0-2.31.49-3.06 1.467-.75.978-1.13 2.302-1.13 3.973 0 1.67.37 2.995 1.12 3.973.75.978 1.77 1.467 3.06 1.467s2.31-.49 3.06-1.467c.75-.978 1.12-2.302 1.12-3.973zm6.933-6.978c.608-.15 1.415-.313 2.42-.484 1.008-.17 2.166-.256 3.476-.256 1.177 0 2.155.166 2.933.498.78.333 1.4.798 1.866 1.396.465.6.793 1.32.982 2.15.19.84.285 1.76.285 2.77V23h-2.65v-7.747c0-.91-.06-1.69-.19-2.335-.13-.646-.33-1.168-.61-1.566-.29-.4-.67-.69-1.14-.87-.48-.18-1.06-.27-1.77-.27-.29 0-.58.01-.89.03-.31.018-.6.042-.87.07-.28.028-.53.062-.74.1-.22.038-.38.066-.47.085V23h-2.65V8.617z"/>
  </g>
</svg>
