<svg xmlns="http://www.w3.org/2000/svg" width="164" height="164">
  <g fill="none" fill-rule="evenodd">
    <rect width="158" height="158" x="3" y="3" stroke="#FFBF00" stroke-width="6" rx="79"/>
    <path fill="#FFBF00" d="M112.75 69.667L82.333 43 52.056 69.667c-.093 0-.255.162-.487.486-.24.324-.56.717-.98 1.18-.42.463-.77.996-1.04 1.598-.28.61-.47 1.18-.56 1.74l.14 32.78c-.1.84.02 1.58.34 2.23.322.65.72 1.23 1.18 1.74.462.51 1.04.903 1.735 1.18.693.278 1.41.417 2.152.417h55.692c.74 0 1.455-.14 2.15-.416.693-.277 1.272-.67 1.735-1.18.464-.51.857-1.09 1.18-1.736.326-.646.44-1.39.35-2.22l.14-32.775c-.095-.554-.28-1.133-.558-1.734-.278-.6-.625-1.134-1.04-1.597-.417-.465-.765-.858-1.04-1.18-.28-.326-.465-.488-.558-.488h.14zm-.278 9.583l-12.778 9.583 12.778 19.306h-5.833L94.83 92.58l-12.5 9.584h.14-.28L69.97 92.58l-12.084 15.556H52.47L64.83 88.83l-12.36-9.58-.14-5.833 7.64 5c-.092-.37-.116-.74-.07-1.11.047-.372.117-.72.21-1.043.092-.324.254-.648.485-.972.232-.324.44-.625.625-.903l17.084-16.95c.37-.47.88-.81 1.527-1.04.65-.24 1.25-.35 1.81-.35s1.14.11 1.74.34c.6.23 1.09.572 1.46 1.04l17.78 17.64c.19.272.4.55.63.83.23.275.37.6.418.97.047.37.117.715.21 1.04.093.324.093.67 0 1.04l8.61-5.554-.14 5.832h.14zm-13.75.278L80.944 61.61 79.417 63l18.055 17.917 1.25-1.39zm-3.61 3.333L77.055 64.95l-1.112 1.39 17.78 17.915 1.39-1.39zm-3.472 3.62L73.86 68.56l-1.53 1.25 18.06 17.916 1.25-1.25zm-3.48 3.61L70.11 72.17l-1.25 1.25 17.78 17.916 1.527-1.25z"/>
  </g>
</svg>
